<?xml version="1.0" encoding="utf-8"?>
<!-- Generator: Adobe Illustrator 22.1.0, SVG Export Plug-In . SVG Version: 6.00 Build 0)  -->
<svg version="1.1" id="Layer_1" xmlns="http://www.w3.org/2000/svg" xmlns:xlink="http://www.w3.org/1999/xlink" x="0px" y="0px"
	 viewBox="0 0 180 180" style="enable-background:new 0 0 180 180;" xml:space="preserve">
<style type="text/css">
	.st0{fill:#642B7C;}
	.st1{fill:#FFFFFF;}
	.st2{fill:#FA5721;}
</style>
<title>famicon</title>
<g>
	<g>
		<g>
			
				<image style="overflow:visible;opacity:0.25;" width="59" height="70" xlink:href="C3186E35.png"  transform="matrix(1 0 0 1 1 58)">
			</image>
			<g>
				<g>
					<g>
						<path class="st0" d="M21,116.7c-0.9,0-1.8,0-2.5,0c-0.5,0-0.9,0-1.2,0c-4,0-6.9-0.1-8.6-1.9c-0.9-0.9-1.3-2.2-1.3-3.8l0-0.3
							c0.3-7.2,0.5-14,0.4-21.9l0-2.2c-0.1-6.4-0.2-12.5-0.8-17c-0.2-0.7-0.2-1.3-0.2-1.8c0-3.1,3-3.4,4-3.4
							c4.1-0.5,11.1-1.1,18.1-1.1c7.6,0,13.4,0.6,17.3,1.8c0.5,0.2,1,0.6,1.2,1.1c0.6,1.2,1.2,3.5,1.2,5.6c0,2.4-0.8,4.2-2.1,4.9
							c-0.3,0.1-0.6,0.2-0.9,0.2L44.3,77c-4.8,0.2-9.3,0.4-14,1.1c-0.3,1.7-0.6,5.4-0.7,8.6c1.8-0.1,3.3-0.2,4.7-0.2
							c2.2,0,4.3,0.1,6.4,0.4c0.1,0,0.2,0,0.3,0.1c2.2,0.6,4.7,2.7,4.7,8.8c0,0.6-0.1,1.3-0.2,2.1c-0.1,1-1,1.7-2,1.8
							c-2,0-8.4,0.2-14.2,1c-0.1,3.5,0,8.8,0.3,11.8c0.1,0.9-0.2,1.7-0.8,2.4C27.8,116.2,25.5,116.7,21,116.7z"/>
						<path class="st1" d="M28.9,65.3c6.3,0,12.6,0.4,16.7,1.7c0.5,1,1,3,1,4.8c0,1.4-0.3,2.8-1.1,3.2c-5.7,0.3-11,0.5-16.7,1.3
							c-0.8,1.3-1.2,9-1.2,12.6c2.4-0.2,4.6-0.4,6.7-0.4c2,0,4,0.1,6.1,0.4c2.8,0.8,3.3,4.2,3.3,6.9c0,0.6-0.1,1.3-0.1,1.9
							c-4.5,0.1-11,0.4-16.1,1.2c-0.2,3.4-0.1,10.1,0.3,13.8c0.2,1.8-3.6,2.1-6.8,2.1c-1.5,0-2.9-0.1-3.7-0.1c-5.2,0-8-0.3-7.9-3.6
							c0.3-7.2,0.6-14.2,0.4-22.3c-0.1-7.2-0.2-14.4-0.8-19.6c-0.1-0.6-0.2-1-0.2-1.4c0-1,0.5-1.3,2.2-1.4
							C15.3,65.8,22.1,65.3,28.9,65.3 M28.9,61.3c-7.1,0-14.1,0.6-18.4,1.1c-5.2,0.5-5.8,3.9-5.8,5.4c0,0.7,0.1,1.4,0.3,2.1
							c0.5,4.4,0.6,10.4,0.7,16.7l0,2.3c0.1,7.8-0.1,14.6-0.4,21.8l0,0.3c-0.1,2.6,0.9,4.3,1.8,5.2c2.3,2.3,5.6,2.5,10.1,2.5
							c0.3,0,0.7,0,1.2,0c0.7,0,1.6,0,2.5,0c4.3,0,7.6-0.4,9.5-2.5c1-1.1,1.4-2.5,1.3-3.9c-0.3-2.5-0.4-6.6-0.4-9.9
							c4.1-0.5,8.8-0.7,12.2-0.7c2,0,3.7-1.5,3.9-3.5c0.1-0.9,0.2-1.7,0.2-2.4c0-7.7-3.9-10-6.2-10.7c-0.2-0.1-0.4-0.1-0.6-0.1
							c-2.2-0.3-4.4-0.5-6.7-0.5c-0.8,0-1.7,0-2.6,0.1c0.1-1.7,0.2-3.4,0.4-4.7c4.1-0.5,8.1-0.7,12.3-0.9l1.3-0.1
							c0.6,0,1.2-0.2,1.7-0.5c2.1-1.1,3.2-3.5,3.2-6.7c0-2.1-0.5-4.7-1.3-6.5c-0.5-1-1.4-1.8-2.4-2.1C42.7,61.9,36.7,61.3,28.9,61.3
							L28.9,61.3z"/>
					</g>
				</g>
			</g>
		</g>
		<g>
			<g>
				<path class="st0" d="M40.4,88.9c2.8,0.8,3.3,4.2,3.3,6.9c0,0.6-0.1,1.3-0.1,1.9c-4.5,0.1-11,0.4-16.1,1.2
					c-0.2,3.4-0.1,10.1,0.3,13.8c0.3,2.6-8.1,2-10.6,2c-5.2,0-8-0.3-7.9-3.6c0.3-7.2,0.6-14.2,0.4-22.3c-0.1-7.2-0.2-14.4-0.8-19.6
					c-0.1-0.6-0.2-1-0.2-1.4c0-1,0.5-1.3,2.2-1.4c8.3-1,26.1-2,34.6,0.7c0.5,1,1,3,1,4.8c0,1.4-0.3,2.8-1.1,3.2
					c-5.7,0.3-11,0.5-16.7,1.3c-0.8,1.3-1.2,9-1.2,12.6C32.3,88.4,36,88.3,40.4,88.9z"/>
			</g>
		</g>
	</g>
	<g>
		
			<image style="overflow:visible;opacity:0.4;" width="72" height="71" xlink:href="C3186E37.png"  transform="matrix(1 0 0 1 44 58)">
		</image>
		<g>
			<g>
				<g>
					<path class="st0" d="M68.7,116.7c-0.7,0-6.6-0.1-9.3-2.1c-1-0.7-3.9-2.7-3.7-5.8c0-5.6,10.4-32.8,13.2-37.2c1-3,5.9-3,7.5-3
						c2.8,0,5,0.2,7.2,0.4c1.3,0.1,2.6,0.2,4,0.3c0.2,0,0.3,0,0.5,0c3.5,0,5.8,2.2,5.9,5.7c0.7,5.2,4.9,22.9,9.7,33.2
						c0,0,0,0.1,0,0.1c0.4,1,1.3,3.4-0.7,5c-0.2,0.1-0.4,0.3-0.6,0.3c-0.7,0.2-1.4,0.5-2,0.7c-2.5,0.9-5,1.8-8,1.8
						c-3.4,0-5.9-0.5-7.8-3.2c-1.1-1.6-1.9-3.7-2.3-5.2c-2.7,0.1-5.3,0.4-8.3,1c-0.4,1.4-0.8,3.8-1,4.8l0,0.1
						C72.7,115.6,70.9,116.7,68.7,116.7z M78.7,89.4c-0.7,1.9-1.3,3.8-1.8,5.6c0.8-0.1,1.7-0.1,2.6-0.2
						C79.2,93.2,78.9,91.3,78.7,89.4z"/>
					<path class="st1" d="M76.5,70.6c4.4,0,7.4,0.5,11.3,0.7c0.2,0,0.3,0,0.4,0c2.4,0,3.9,1.4,3.9,3.8c0.7,5,5,23.3,9.8,33.9
						c0.3,0.8,0.8,2-0.1,2.7c-3.1,1-6,2.5-9.4,2.5c-3.2,0-4.9-0.5-6.2-2.3c-1.2-1.7-2-4.2-2.3-6c-4,0-7.4,0.4-11.4,1.3
						c-0.5,1.1-1.2,4.7-1.5,6.3c-0.2,0.9-1.2,1.4-2.3,1.4c-2.3,0-6.4-0.4-8.1-1.7c-1.4-1-3-2.3-2.9-4.1c-0.7-2.9,10.7-33.7,13-36.5
						C71.1,70.9,74.2,70.6,76.5,70.6 M74.3,97.4c1.8-0.3,5.5-0.6,7.6-0.6c-0.9-3.4-1.7-9.8-1.7-15.2C78.4,83.6,75.1,92.9,74.3,97.4
						 M76.5,66.6c-5.2,0-8.3,1.4-9.4,4.1c-2.3,3.8-6.4,15-7.7,18.6c-5.4,14.8-5.8,18.5-5.6,20c0.1,3.9,3.4,6.2,4.6,7
						c3.2,2.3,9.2,2.4,10.4,2.4c3.1,0,5.7-1.9,6.2-4.5c0,0,0-0.1,0-0.1l0-0.1c0.3-1.5,0.5-2.6,0.7-3.4c1.9-0.3,3.5-0.5,5.2-0.6
						c0.5,1.4,1.2,2.9,2.1,4.2c0,0,0,0,0,0.1c2.6,3.5,6,4,9.4,4c3.3,0,6.2-1,8.7-2c0.6-0.2,1.3-0.5,2-0.7c0.4-0.1,0.8-0.4,1.2-0.7
						c1.4-1.1,2.9-3.3,1.3-7.2c0-0.1-0.1-0.2-0.1-0.3c-4.7-10.2-8.8-27.9-9.5-32.6c-0.2-4.4-3.4-7.5-7.9-7.5c-0.1,0-0.3,0-0.5,0
						c-1.3-0.1-2.6-0.2-3.9-0.3C81.7,66.8,79.3,66.6,76.5,66.6L76.5,66.6z"/>
				</g>
				<g>
					<g>
						<path class="st0" d="M92.5,114.2c-3.2,0-4.9-0.5-6.2-2.3c-1.2-1.7-2-4.2-2.3-6c-4,0-7.4,0.4-11.4,1.3
							c-0.5,1.1-1.2,4.7-1.5,6.3c-0.2,0.9-1.2,1.4-2.3,1.4c-2.3,0-6.4-0.4-8.1-1.7c-1.4-1-3-2.3-2.9-4.1c-0.7-2.9,10.7-33.7,13-36.5
							c0.3-1.5,3.4-1.8,5.7-1.8c4.4,0,7.4,0.5,11.3,0.7c2.7-0.2,4.3,1.3,4.4,3.8c0.7,5,5,23.3,9.8,33.9c0.3,0.8,0.8,2-0.1,2.7
							C98.8,112.8,95.9,114.2,92.5,114.2z M80.3,81.6c-1.8,2-5.2,11.4-6,15.8c1.8-0.3,5.5-0.6,7.6-0.6C81,93.3,80.3,87,80.3,81.6z"
							/>
					</g>
				</g>
			</g>
		</g>
	</g>
	<g>
		
			<image style="overflow:visible;opacity:0.4;" width="82" height="71" xlink:href="C3186E32.png"  transform="matrix(1 0 0 1 103 58)">
		</image>
		<g>
			<g>
				<g>
					<path class="st0" d="M123.7,116.7c-0.5,0-5.3,0-6.8-0.8c0,0-0.1,0-0.1-0.1c-2-1.2-2.6-4.8-2.2-15.3c0.3-9.9,0.3-19.7-0.2-27.7
						c0-0.3,0-0.6,0.2-0.9c0.7-1.7,3-2.8,5.8-2.8c1.9,0,4.2,0,6.5,0.1c2.2,0,4.5,0.1,6.3,0.1c0.5,0,1,0,1.4-0.1
						c0.5,0,0.9-0.1,1.3-0.1c3.2,0,5.5,2,5.6,4.8c0.7,4.2,1.7,8.5,2.6,12.2c1.7-4.8,3.8-10.4,5.4-13.6c0.8-2.9,2.6-3.5,4.1-3.5
						c0.2,0,0.5,0,0.8,0c1.4-0.2,4.1-0.4,6.7-0.4c8.6,0,12.4,1.4,12.4,4.5c0,0.7-0.2,1.4-0.3,2c-1.1,10.2-1.1,22.6,0.1,36.7
						c0,0.1,0,0.2,0,0.4c-0.3,2.8-3.7,3.3-5.1,3.6c-3,0.3-4.7,0.3-6.3,0.3c-0.9,0-3.9-0.1-5.7-1.1c-1.4-0.5-1.8-1.6-2-11.4
						c0-0.4,0-0.8,0-1.2c-0.9,3.3-1.6,6.8-2.3,9.9c-0.1,0.5-0.4,0.9-0.8,1.2c-1.7,1.2-5.1,1.4-6.9,1.4c-1.8,0-6.3-0.2-8.2-1.8
						c-0.3-0.3-0.6-0.7-0.7-1.1c-0.4-1.7-1.3-5.5-2.4-9.4c0.1,3.6,0.3,7.2,0.5,9.6c0.1,0.8-0.2,1.6-0.7,2.3
						C131.9,115.2,130.5,116.7,123.7,116.7z"/>
					<path class="st1" d="M160.9,70.7c4.8,0,10.4,0.5,10.4,2.5c0,0.6-0.2,1.2-0.3,1.7c-1.4,12-0.9,25.4,0.1,37.3
						c-0.1,1.2-2.3,1.6-3.4,1.8c-2.8,0.3-4.4,0.3-6,0.3c-2.1,0-4.1-0.4-4.9-0.9c-0.9-0.2-1-17.9-0.7-22.4
						c-2.9,5.3-4.9,13.9-6.4,21.1c-1,0.7-3.3,1-5.8,1c-2.9,0-5.9-0.5-6.9-1.3c-0.7-3.3-4.2-16.5-6.1-20.3
						c-0.7,5.9-0.1,16.3,0.2,21.1c0.2,1.6-3.7,2.1-7.4,2.1c-2.7,0-5.3-0.3-5.9-0.6c-1.5-0.9-1.4-8-1.2-13.5
						c0.3-9.2,0.3-19.2-0.2-27.9c0.4-0.9,1.9-1.6,3.9-1.6c3.7,0,9.1,0.1,12.8,0.1c1,0,1.9-0.1,2.7-0.1c2,0,3.6,1.1,3.6,2.9
						c1,6.1,2.8,13.7,4.5,18.7c1.7-5.5,5.1-15.1,7.4-19.7c0.4-1.7,1.1-2.2,2.2-2.2c0.2,0,0.5,0,0.8,0.1
						C155.2,70.9,157.9,70.7,160.9,70.7 M160.9,66.7C160.9,66.7,160.9,66.7,160.9,66.7c-2.5,0-5.1,0.1-6.7,0.3c-0.3,0-0.5,0-0.7,0
						c-1.4,0-4.7,0.5-6,4.7c-0.9,1.9-2,4.5-3.1,7.3c-0.4-1.8-0.7-3.6-1-5.4c-0.2-3.8-3.4-6.5-7.6-6.5c-0.5,0-1,0-1.4,0.1
						c-0.4,0-0.8,0.1-1.3,0.1c-1.8,0-4.1,0-6.3-0.1c-2.3,0-4.6-0.1-6.5-0.1c-3.6,0-6.5,1.5-7.6,4c-0.2,0.6-0.4,1.2-0.3,1.8
						c0.4,7.9,0.5,17.7,0.2,27.5c-0.4,10.5,0,15.2,3.2,17.1c0.1,0,0.1,0.1,0.2,0.1c1.7,0.9,5.6,1,7.7,1c6.9,0,9-1.5,10.1-2.7
						c0.3-0.3,0.5-0.7,0.7-1.1c2.3,1.8,6.3,2.1,9.3,2.1c3.7,0,6.5-0.6,8.1-1.7c0.3-0.2,0.6-0.5,0.9-0.8c0.4,1,1,1.9,2.1,2.4
						c2.2,1.2,5.3,1.3,6.6,1.3c1.6,0,3.5,0,6.5-0.3c0.1,0,0.1,0,0.2,0c1.6-0.2,6.4-1,6.8-5.3c0-0.2,0-0.5,0-0.7
						c-1.2-13.9-1.3-26.1-0.2-36.2c0.2-0.7,0.4-1.6,0.4-2.4c0-2.1-1.2-4.9-6.6-5.9C166.1,66.8,163,66.7,160.9,66.7L160.9,66.7z"/>
				</g>
				<g>
					<g>
						<path class="st0" d="M171.3,73.2c0,0.6-0.2,1.2-0.3,1.7c-1.4,12-0.9,25.4,0.1,37.3c-0.1,1.2-2.3,1.6-3.4,1.8
							c-2.8,0.3-4.4,0.3-6,0.3c-2.1,0-4.1-0.4-4.9-0.9c-0.9-0.2-1-17.9-0.7-22.4c-2.9,5.3-4.9,13.9-6.4,21.1
							c-2.1,1.5-10.8,1.3-12.7-0.3c-0.7-3.3-4.2-16.5-6.1-20.3c-0.7,5.9-0.1,16.3,0.2,21.1c0.4,2.8-11.9,2.3-13.3,1.5
							c-1.5-0.9-1.4-8-1.2-13.5c0.3-9.2,0.3-19.2-0.2-27.9c0.4-0.9,1.9-1.6,3.9-1.6c3.7,0,9.1,0.1,12.8,0.1c1,0,1.9-0.1,2.7-0.1
							c2,0,3.6,1.1,3.6,2.9c1,6.1,2.8,13.7,4.5,18.7c1.7-5.5,5.1-15.1,7.4-19.7c0.5-2,1.5-2.3,3-2.1C156.9,70.6,171.3,70,171.3,73.2
							z"/>
					</g>
				</g>
			</g>
		</g>
	</g>
	<g>
		
			<image style="overflow:visible;opacity:0.4;" width="55" height="45" xlink:href="C3186E33.png"  transform="matrix(1 0 0 1 68 27)">
		</image>
		<g>
			<g>
				<g>
					<path class="st2" d="M83.2,53.8c-1.2,0-2.2-0.9-2.4-2l-2.2-12.6c-0.1-0.6,0-1.3,0.4-1.8c0.4-0.5,0.9-0.9,1.6-1
						c0.1,0,0.3,0,0.4,0c1.2,0,2.2,0.9,2.4,2l2.2,12.6c0.2,1.3-0.7,2.6-2,2.9C83.4,53.8,83.3,53.8,83.2,53.8z"/>
					<path class="st1" d="M80.9,37.2c0.7,0,1.3,0.5,1.4,1.2l2.2,12.6c0.1,0.8-0.4,1.6-1.2,1.7c-0.1,0-0.2,0-0.3,0
						c-0.7,0-1.3-0.5-1.4-1.2L79.5,39c-0.1-0.8,0.4-1.6,1.2-1.7h0C80.7,37.2,80.8,37.2,80.9,37.2 M80.9,35.2c-0.2,0-0.4,0-0.6,0.1
						c-0.9,0.2-1.7,0.7-2.2,1.4c-0.5,0.8-0.7,1.7-0.6,2.6l2.2,12.6c0.3,1.7,1.7,2.9,3.4,2.9c0.2,0,0.4,0,0.6-0.1
						c0.9-0.2,1.7-0.7,2.2-1.4c0.5-0.8,0.7-1.7,0.6-2.6l-2.2-12.6C84,36.4,82.6,35.2,80.9,35.2L80.9,35.2z"/>
				</g>
				<g>
					<path class="st2" d="M93.2,54.2c-0.2,0-0.5,0-0.7-0.1l-0.5-0.1c-0.6-0.2-1-0.6-1.3-1.1c-0.3-0.5-0.3-1.1-0.1-1.7l4.1-12.7
						c0.3-0.9,1.1-1.5,2.1-1.5c0.2,0,0.5,0,0.7,0.1l0.5,0.1c0.6,0.2,1,0.6,1.3,1.1c0.3,0.5,0.3,1.1,0.1,1.7l-4.1,12.7
						C95.1,53.6,94.2,54.2,93.2,54.2z"/>
					<path class="st1" d="M96.8,37.9c0.1,0,0.2,0,0.4,0.1l0.5,0.1c0.6,0.2,1,0.9,0.8,1.5l-4.1,12.7c-0.2,0.5-0.6,0.9-1.2,0.9
						c-0.1,0-0.2,0-0.4-0.1L92.4,53c-0.6-0.2-1-0.9-0.8-1.5l4.1-12.7C95.8,38.2,96.3,37.9,96.8,37.9 M96.8,35.9L96.8,35.9
						c-1.4,0-2.6,0.9-3.1,2.2l-4.1,12.7c-0.3,0.8-0.2,1.7,0.2,2.5c0.4,0.8,1.1,1.3,1.9,1.6l0.5,0.1c0.3,0.1,0.6,0.2,1,0.2
						c1.4,0,2.6-0.9,3.1-2.2l4.1-12.7c0.3-0.8,0.2-1.7-0.2-2.5c-0.4-0.8-1.1-1.3-1.9-1.6L97.8,36C97.5,35.9,97.2,35.9,96.8,35.9
						L96.8,35.9z"/>
				</g>
				<g>
					<path class="st2" d="M101.1,60.7c-0.6,0-1.1-0.2-1.6-0.6l-0.4-0.3c-0.4-0.4-0.7-1-0.7-1.6c0-0.6,0.2-1.2,0.7-1.6l9.4-9.5
						c0.4-0.4,1-0.7,1.6-0.7c0.6,0,1.1,0.2,1.6,0.6l0.4,0.3c0.4,0.4,0.7,1,0.7,1.6c0,0.6-0.2,1.2-0.6,1.6l-9.4,9.5
						C102.2,60.5,101.7,60.7,101.1,60.7z"/>
					<path class="st1" d="M110.1,47.5c0.3,0,0.6,0.1,0.9,0.4l0.4,0.3c0.5,0.5,0.5,1.3,0,1.7l-9.4,9.5c-0.2,0.2-0.6,0.4-0.9,0.4
						c-0.3,0-0.6-0.1-0.9-0.4L99.9,59c-0.5-0.5-0.5-1.3,0-1.7l9.4-9.5C109.5,47.6,109.8,47.5,110.1,47.5 M110.1,45.5L110.1,45.5
						c-0.9,0-1.7,0.3-2.3,0.9l-9.4,9.5c-0.6,0.6-0.9,1.4-0.9,2.3c0,0.9,0.3,1.7,1,2.3l0.4,0.3c0.6,0.6,1.4,0.9,2.3,0.9
						c0.9,0,1.7-0.3,2.3-0.9l9.4-9.5c0.6-0.6,0.9-1.4,0.9-2.3c0-0.9-0.3-1.7-1-2.3l-0.4-0.3C111.8,45.8,111,45.5,110.1,45.5
						L110.1,45.5z"/>
				</g>
				<g>
					<g>
						<g>
							<path class="st2" d="M83.4,52.8L83.4,52.8c-0.8,0.1-1.6-0.4-1.7-1.2L79.5,39c-0.1-0.8,0.4-1.6,1.2-1.7h0
								c0.8-0.1,1.6,0.4,1.7,1.2l2.2,12.6C84.7,51.9,84.2,52.6,83.4,52.8z"/>
						</g>
						<g>
							<path class="st2" d="M92.9,53.1L92.4,53c-0.6-0.2-1-0.9-0.8-1.5l4.1-12.7c0.2-0.6,0.9-1,1.5-0.8l0.5,0.1
								c0.6,0.2,1,0.9,0.8,1.5l-4.1,12.7C94.2,53,93.5,53.3,92.9,53.1z"/>
						</g>
						<g>
							<path class="st2" d="M100.2,59.4L99.9,59c-0.5-0.5-0.5-1.3,0-1.7l9.4-9.5c0.5-0.5,1.2-0.5,1.7,0l0.4,0.3
								c0.5,0.5,0.5,1.3,0,1.7l-9.4,9.5C101.5,59.8,100.7,59.8,100.2,59.4z"/>
						</g>
					</g>
				</g>
			</g>
		</g>
	</g>
</g>
</svg>
