<?xml version="1.0" encoding="utf-8"?>
<!-- Generator: Adobe Illustrator 22.1.0, SVG Export Plug-In . SVG Version: 6.00 Build 0)  -->
<svg version="1.1" id="Layer_1" xmlns="http://www.w3.org/2000/svg" xmlns:xlink="http://www.w3.org/1999/xlink" x="0px" y="0px"
	 viewBox="0 0 24 24" style="enable-background:new 0 0 24 24;" xml:space="preserve">
<style type="text/css">
	.st0{fill:#FFFFFF;}
</style>
<g>
	<path class="st0" d="M19,2H5C3.3,2,2,3.3,2,5v14c0,1.7,1.3,3,3,3h14c1.7,0,3-1.3,3-3V5C22,3.3,20.7,2,19,2z M13,18.5
		c-3.6,0.5-7-2-7.5-5.6c-0.5-3.6,2-7,5.6-7.5c0.6-0.1,1.3-0.1,1.9,0c2.9,0.4,5.1,2.7,5.6,5.6C19.1,14.6,16.6,18,13,18.5z M18.7,5.8
		c-0.4,0-0.7-0.3-0.7-0.7s0.3-0.7,0.7-0.7c0.4,0,0.7,0.3,0.7,0.7S19.1,5.8,18.7,5.8z"/>
	<path class="st0" d="M12.8,6.8c-0.5-0.1-1-0.1-1.5,0c-2.9,0.4-4.8,3.1-4.4,6c0.4,2.9,3.1,4.8,6,4.4c2.9-0.4,4.8-3.1,4.4-6
		C16.9,8.9,15.1,7.1,12.8,6.8z"/>
</g>
<g>
	<path d="M-7.3,2h-14c-1.7,0-3,1.3-3,3v14c0,1.7,1.3,3,3,3h14c1.7,0,3-1.3,3-3V5C-4.3,3.3-5.7,2-7.3,2z M-13.3,18.5
		c-3.6,0.5-7-2-7.5-5.6c-0.5-3.6,2-7,5.6-7.5c0.6-0.1,1.3-0.1,1.9,0c2.9,0.4,5.1,2.7,5.6,5.6C-7.2,14.6-9.7,18-13.3,18.5z M-7.6,5.8
		c-0.4,0-0.7-0.3-0.7-0.7S-8,4.4-7.6,4.4c0.4,0,0.7,0.3,0.7,0.7S-7.3,5.8-7.6,5.8z"/>
	<path d="M-13.5,6.8c-0.5-0.1-1-0.1-1.5,0c-2.9,0.4-4.8,3.1-4.4,6c0.4,2.9,3.1,4.8,6,4.4c2.9-0.4,4.8-3.1,4.4-6
		C-9.4,8.9-11.2,7.1-13.5,6.8z"/>
</g>
</svg>
