<svg id="Capa_1" enable-background="new 0 0 512 512" height="512" viewBox="0 0 512 512" width="512" xmlns="http://www.w3.org/2000/svg"><g><path d="m286 177.99c-5.903 2.728-12.471 4.26-19.4 4.26h-21.2c-6.929 0-13.497-1.533-19.4-4.26v27.935h60z" fill="#b5adb6"/><g fill="#554e56"><path d="m312.912 83v23h8.546c4.547 0 8.721 1.567 12.041 4.172v-27.172z"/><path d="m178.5 83v27.172c3.32-2.605 7.494-4.172 12.041-4.172h8.546v-23z"/></g><g><path d="m254.461 394.765c.837.481 1.79.735 2.757.735.97 0 1.927-.256 2.767-.741l103.513-59.763v-80.341c0-26.913-21.817-48.729-48.729-48.729h-117.537c-26.913 0-48.729 21.817-48.729 48.729v79.242z" fill="#e2dee2"/></g><g><path d="m182.006 353.143v-98.488c0-26.913 21.817-48.729 48.729-48.729h-33.503c-26.913 0-48.729 21.817-48.729 48.729v79.242z" fill="#cbc4cc"/></g><g fill="#ffbd86"><path d="m199.088 135.938v-29.938h-8.546c-10.793 0-19.542 8.749-19.542 19.541v6.251c0 10.792 8.749 19.541 19.541 19.541h11.178c-1.698-4.818-2.631-9.996-2.631-15.395z"/><path d="m321.459 106h-8.546v29.938c0 5.399-.933 10.578-2.632 15.396h11.178c10.792 0 19.541-8.749 19.541-19.541v-6.251c0-10.793-8.749-19.542-19.541-19.542z"/></g><g><path d="m375.239 389.373h-11.592l-103.695 59.764c-1.548.892-3.453.891-5-.004l-103.338-59.76h-16.909c-22.614 0-41.117 18.503-41.117 41.117v32.893c0 22.614 18.503 41.117 41.117 41.117h240.534c22.614 0 41.117-18.503 41.117-41.117v-32.893c0-22.615-18.503-41.117-41.117-41.117z" fill="#01c0fa"/></g><path d="m141.588 463.383v-32.893c0-14.947 8.087-28.093 20.098-35.292l-10.072-5.825h-16.909c-22.614 0-41.117 18.503-41.117 41.117v32.893c0 22.614 18.503 41.117 41.117 41.117h48c-22.614 0-41.117-18.503-41.117-41.117z" fill="#08a9f1"/><g><path d="m206.401 421.056-82.098 82.098c3.326.875 6.812 1.345 10.402 1.345h30.679l67.898-67.898z" fill="#e9b665"/><path d="m206.401 421.056-82.098 82.098c3.326.875 6.812 1.345 10.402 1.345h9.238l75.755-75.755z" fill="#d8aa5e"/><path d="m306.723 422.181-26.915 15.512 66.807 66.807h28.623c4.171 0 8.201-.634 12.001-1.802z" fill="#e9b665"/><path d="m279.809 437.693 66.806 66.807h22.404l-74.998-74.999z" fill="#d8aa5e"/></g><path d="m199.088 82v53.938c0 25.578 20.735 46.312 46.312 46.312h21.2c25.578 0 46.312-20.735 46.312-46.312v-53.938z" fill="#ffbd86"/><path d="m224.175 135.938v-53.938h-25.088v53.938c0 25.578 20.735 46.312 46.312 46.312h21.2c.652 0 1.299-.022 1.944-.049-24.674-1.02-44.368-21.338-44.368-46.263z" fill="#f6a96c"/><g><g><path d="m212.5 7.5h87c18.778 0 34 15.222 34 34v41.5h-155v-41.5c0-18.778 15.222-34 34-34z" fill="#e2dee2"/></g></g><g><path d="m253 7.5h-40.5c-18.778 0-34 15.222-34 34v41.5h40.5v-41.5c0-18.778 15.222-34 34-34z" fill="#cbc4cc"/></g><g><path d="m254.456 421.872c.908.522 1.941.798 2.989.797 1.052 0 2.089-.278 2.999-.804l137.926-79.631-8.39-17.991c-1.124-2.411-4.073-3.341-6.377-2.01l-124.12 71.661c-1.4.808-3.124.81-4.526.005l-126.808-72.847c-2.303-1.323-5.246-.392-6.368 2.016l-8.308 17.816z" fill="#fff"/><path d="m155.317 339.619c.396-.848 1.024-1.501 1.764-1.949l-28.93-16.619c-2.303-1.323-5.246-.392-6.368 2.016l-7.884 16.906 32.537 18.692z" fill="#f3f0f3"/><g><path d="m404.708 337.42-144.763 83.579c-1.544.891-3.445.893-4.991.005l-147.946-84.99c-2.54-1.459-5.784-.432-7.022 2.222l-5.88 12.61c-1.095 2.348-.215 5.144 2.029 6.441l158.818 91.845c1.546.894 3.452.896 5 .004l155.907-89.856c2.247-1.295 3.131-4.094 2.035-6.445l-6.155-13.199c-1.24-2.657-4.492-3.683-7.032-2.216z" fill="#d8aa5e"/></g><g><g><path d="m121.498 357.288c-2.243-1.297-3.123-4.093-2.028-6.441l2.823-6.053-15.284-8.78c-2.54-1.459-5.784-.432-7.022 2.222l-5.88 12.61c-1.095 2.348-.215 5.144 2.029 6.441l158.818 91.845c1.546.894 3.452.896 5 .004l10.202-5.88z" fill="#c99c56"/></g></g></g><g><g><path d="m243 205.925h26v64c0 1.657-1.343 3-3 3h-20c-1.657 0-3-1.343-3-3z" fill="#fff"/></g></g><g><path d="m256 269.925v-64h-13v64c0 1.657 1.343 3 3 3h13c-1.657 0-3-1.343-3-3z" fill="#f3f0f3"/></g><g><path d="m277.212 153.863c3.192-2.64 3.639-7.368.999-10.56-2.641-3.191-7.368-3.639-10.56-.998-6.752 5.585-16.551 5.585-23.303 0-3.19-2.64-7.919-2.194-10.56.998-2.64 3.192-2.193 7.919.999 10.56 6.146 5.084 13.679 7.626 21.212 7.626s15.067-2.542 21.213-7.626z"/><path d="m234.235 109.845c0-4.142-3.357-7.5-7.5-7.5s-7.5 3.358-7.5 7.5v8.208c0 4.142 3.357 7.5 7.5 7.5s7.5-3.358 7.5-7.5z"/><path d="m285.265 125.553c4.143 0 7.5-3.358 7.5-7.5v-8.208c0-4.142-3.357-7.5-7.5-7.5s-7.5 3.358-7.5 7.5v8.208c0 4.142 3.357 7.5 7.5 7.5z"/><path d="m243.989 132.31 7.676 5.437c1.316.933 2.829 1.38 4.328 1.38 2.351 0 4.665-1.102 6.127-3.166 2.395-3.38 1.595-8.061-1.785-10.455l-1.889-1.338 3.906-6.226c2.202-3.509 1.143-8.138-2.366-10.339-3.51-2.201-8.138-1.142-10.339 2.367l-7.676 12.233c-2.115 3.371-1.229 7.807 2.018 10.107z"/><path d="m457.986 497h-47.766c8.255-8.586 13.428-20.16 13.619-32.888.062-4.142-3.245-7.549-7.387-7.611-.039-.001-.076-.001-.114-.001-4.09 0-7.436 3.285-7.497 7.388-.199 13.323-8.283 24.825-19.729 30.074l-70.168-70.168 46.71-26.921h9.586c17.873 0 32.938 14.534 33.583 32.397.15 4.14 3.663 7.373 7.766 7.225 4.14-.149 7.374-3.626 7.225-7.766-.454-12.573-5.719-24.348-14.823-33.157-5.859-5.669-12.899-9.686-20.526-11.846l31.143-17.949c5.662-3.264 7.848-10.191 5.086-16.112l-6.154-13.198c-1.477-3.168-4.236-5.589-7.57-6.64-3.212-1.013-6.714-.666-9.674.926l-4.514-9.681c-1.422-3.05-4.078-5.38-7.288-6.392-3.206-1.011-6.721-.628-9.636 1.055l-8.857 5.114v-66.196c0-31.005-25.225-56.229-56.229-56.229h-21.272v-15.911c9.453-5.481 17.093-13.753 21.785-23.68h6.174c14.91 0 27.041-12.131 27.041-27.042v-6.251c0-7.232-2.859-13.805-7.5-18.662v-65.378c0-22.883-18.617-41.5-41.5-41.5h-87c-22.883 0-41.5 18.617-41.5 41.5v65.379c-4.641 4.857-7.5 11.43-7.5 18.662v6.251c0 14.911 12.131 27.042 27.041 27.042h6.174c4.692 9.927 12.332 18.199 21.785 23.68v15.911h-21.268c-31.005 0-56.229 25.225-56.229 56.229v65.131l-9.116-5.237c-2.913-1.674-6.423-2.053-9.624-1.04-3.204 1.014-5.856 3.341-7.277 6.388l-4.437 9.516c-2.987-1.647-6.544-2.013-9.802-.98-3.328 1.053-6.083 3.472-7.557 6.634l-5.882 12.611c-2.757 5.914-.576 12.836 5.071 16.103l32.888 19.019c-22.305 4.407-39.179 24.111-39.179 47.689v32.894c0 13.034 5.166 24.878 13.546 33.617h-45.62c-4.143 0-7.5 3.358-7.5 7.5s3.357 7.5 7.5 7.5h403.973c4.143 0 7.5-3.358 7.5-7.5s-3.358-7.499-7.501-7.499zm-124.486-371.459v6.251c0 6.64-5.401 12.042-12.041 12.042h-1.632c.381-2.578.585-5.213.585-7.896v-22.438h1.047c6.64 0 12.041 5.401 12.041 12.041zm-13.088-27.041v-8h5.588v8.389c-1.478-.251-2.993-.389-4.541-.389zm-134.412-8h5.588v8h-1.047c-1.548 0-3.063.138-4.541.389zm4.541 53.333c-6.64 0-12.041-5.402-12.041-12.042v-6.251c0-6.64 5.401-12.041 12.041-12.041h1.047v22.438c0 2.683.204 5.318.585 7.896zm16.047-7.895v-45.438h55.412c4.143 0 7.5-3.358 7.5-7.5s-3.357-7.5-7.5-7.5h-76v-34c0-14.612 11.888-26.5 26.5-26.5h87c14.612 0 26.5 11.888 26.5 26.5v34h-29c-4.143 0-7.5 3.358-7.5 7.5s3.357 7.5 7.5 7.5h8.412v45.438c0 21.401-17.411 38.812-38.812 38.812h-21.2c-21.401 0-38.812-17.411-38.812-38.812zm71.912 52.469v10.017h-15v-8.675h3.1c4.09.001 8.069-.473 11.9-1.342zm-17 25.018v52h-11v-52zm-13-23.675v8.675h-15v-10.017c3.831.869 7.81 1.343 11.9 1.343h3.1zm-121.285 139.413 62.814 36.085c3.591 2.062 8.176.824 10.239-2.768s.824-8.176-2.767-10.239l-11.501-6.607v-62.634c0-4.142-3.357-7.5-7.5-7.5s-7.5 3.358-7.5 7.5v54.018l-14.997-8.615v-73.748c0-22.734 18.495-41.229 41.229-41.229h38.268v56.5c0 5.79 4.71 10.5 10.5 10.5h20c5.79 0 10.5-4.71 10.5-10.5v-56.5h38.268c22.734 0 41.229 18.496 41.229 41.229v74.857l-14.997 8.658v-55.17c0-4.142-3.357-7.5-7.5-7.5s-7.5 3.358-7.5 7.5v63.83l-68.786 39.714-29.362-16.868c-3.593-2.063-8.177-.825-10.239 2.768-2.063 3.592-.824 8.176 2.767 10.239l30.844 17.718c3.706 2.129 8.31 2.125 12.012-.013l121.316-70.042 3.693 7.919-130.802 75.518-133.835-76.883zm-25.345 22.779 3.763-8.068 145.585 83.633c3.852 2.213 8.633 2.207 12.477-.013l142.4-82.215 4.033 8.648-152.671 87.99zm-.782 111.441v-32.893c0-18.536 15.081-33.617 33.617-33.617h14.896l44.59 25.786-71.939 71.939c-12.387-4.959-21.164-17.078-21.164-31.215zm39.975 33.617 66.568-66.568 13.441 7.773-58.794 58.795zm42.429 0 51.022-51.022 16.684 9.648c1.93 1.116 4.094 1.674 6.258 1.673 2.158 0 4.316-.555 6.242-1.665l14.874-8.573 49.937 49.939zm166.23 0-57.693-57.694 13.457-7.756 65.451 65.45z"/></g></g></svg>